<?xml version="1.0" encoding="UTF-8"?> <svg xmlns="http://www.w3.org/2000/svg" width="184" height="36" viewBox="0 0 184 36" fill="none"> <path d="M0 35.6772V0.694336H9.42351C16.3459 0.694336 19.8072 3.72092 19.8072 9.7741C19.8072 14.1749 17.3212 16.956 12.3493 18.1174C14.1482 18.7604 15.445 19.7234 16.2397 21.0064C17.2135 22.7484 18.0371 25.5455 18.7105 29.3975L19.2588 31.9194C19.6244 33.8758 19.8838 35.1284 20.037 35.6772H15.5527C15.2494 33.9959 14.8072 31.322 14.2263 27.6554C13.3163 22.4277 11.1662 19.753 7.77633 19.6314H4.07016V35.6772H0ZM4.07016 15.917H7.86737C13.0516 15.917 15.6437 13.8693 15.6437 9.7741C15.6437 6.19722 13.3565 4.40879 8.78197 4.40879H4.07016V15.917Z" fill="#1646FF"></path> <path d="M33.4927 0.0546875C40.1406 0.0546875 43.4646 6.04554 43.4646 18.0272C43.4646 30.0089 40.0792 35.9998 33.3084 35.9998C26.5377 35.9998 23.1523 30.0545 23.1523 18.164C23.1523 6.09114 26.5991 0.0546875 33.4927 0.0546875ZM33.2175 3.95155C29.2845 3.95155 27.3173 8.65865 27.3158 18.0728C27.3158 27.4262 29.3133 32.1029 33.3084 32.1029C37.3035 32.1029 39.3011 27.4718 39.3011 18.2096C39.3011 8.70425 37.2732 3.95155 33.2175 3.95155Z" fill="#1646FF"></path> <path d="M46.8496 35.3583V0.699219H54.585C58.8531 0.699219 61.7349 1.40228 63.2304 2.8084C64.1242 3.59827 64.8364 4.573 65.318 5.66539C65.7995 6.75779 66.0389 7.94186 66.0197 9.13596C66.0197 13.1719 64.0981 15.8922 60.2546 17.2968C64.6775 18.519 66.8888 21.4369 66.8888 26.0505C66.8888 28.77 65.9583 31.0502 64.0973 32.8911C62.3894 34.542 59.7518 35.3674 56.1844 35.3674L46.8496 35.3583ZM50.9198 15.5046H54.717C59.5357 15.5046 61.945 13.4874 61.945 9.45292C61.945 7.52538 61.3383 6.16486 60.1249 5.37135C59.1785 4.7633 57.5009 4.45927 55.0923 4.45927H50.9289L50.9198 15.5046ZM50.9198 31.5982H55.4496C60.3593 31.5982 62.8141 29.6114 62.8141 25.6378C62.8141 21.389 60.2068 19.2608 54.9923 19.2532H50.9198V31.5982Z" fill="#1646FF"></path> <path d="M80.3362 0.0546875C86.9841 0.0546875 90.308 6.04554 90.308 18.0272C90.308 30.0089 86.9227 35.9998 80.1519 35.9998C73.3842 35.9998 69.9996 30.0545 69.998 18.164C69.998 6.09114 73.4441 0.0546875 80.3362 0.0546875ZM80.0609 3.95155C76.128 3.95155 74.1615 8.65865 74.1615 18.0728C74.1615 27.4262 76.1583 32.1029 80.1519 32.1029C84.1455 32.1029 86.1438 27.4718 86.1468 18.2096C86.1468 8.70425 84.1182 3.95155 80.0609 3.95155Z" fill="#1646FF"></path> <path d="M113.138 10.1857H108.793C108.337 5.99921 106.828 3.90599 104.263 3.90599C99.8096 3.90599 97.5838 8.76586 97.5853 18.4856C97.5853 27.5623 99.7201 32.1014 103.99 32.103C106.764 32.103 108.578 29.765 109.432 25.0891H113.78C112.528 32.3629 109.387 35.9998 104.356 35.9998C97.0651 35.9998 93.4204 30.0713 93.4219 18.2143C93.4219 12.8345 94.3061 8.46335 96.0746 5.10081C97.8432 1.70027 100.588 0 104.308 0C109.464 0 112.407 3.39522 113.138 10.1857Z" fill="#1646FF"></path> <path d="M127.178 0.0546875C133.827 0.0546875 137.152 6.04554 137.152 18.0272C137.152 30.0089 133.767 35.9998 126.996 35.9998C120.225 35.9998 116.84 30.0545 116.84 18.164C116.841 6.09114 120.287 0.0546875 127.178 0.0546875ZM126.905 3.95155C122.969 3.95155 121.002 8.65865 121.003 18.0728C121.003 27.4262 123.001 32.1029 126.996 32.1029C130.991 32.1029 132.989 27.4718 132.989 18.2096C132.99 8.70425 130.963 3.95155 126.907 3.95155H126.905Z" fill="#1646FF"></path> <path d="M140.541 35.3583V0.699219H147.366C156.18 0.699219 160.587 6.47573 160.587 18.0287C160.587 23.7141 159.383 28.1924 156.974 31.4637C155.081 34.0616 152.092 35.3606 148.006 35.3606L140.541 35.3583ZM144.611 31.466H147.724C150.772 31.466 152.983 30.3958 154.356 28.2554C155.728 26.1151 156.414 22.6614 156.414 17.8942C156.414 9.02879 153.486 4.59608 147.63 4.59608H144.611V31.466Z" fill="#1646FF"></path> <path d="M163.963 35.3583V0.699219H184V4.59608H168.035V15.687H181.438V19.5861H168.035V31.466H184V35.3628L163.963 35.3583Z" fill="#1646FF"></path> </svg> 